<svg xmlns="http://www.w3.org/2000/svg" width="1000" height="454" viewBox="0 0 1000 454" version="1.1"><path d="M 466 26.658 C 465.175 26.933, 463.825 27.419, 463 27.738 C 462.175 28.057, 461.129 28.235, 460.676 28.134 C 460.222 28.033, 460.157 28.445, 460.530 29.049 C 460.904 29.654, 460.313 31.127, 459.218 32.324 C 455.543 36.338, 451.137 45.427, 448.468 54.500 C 446.113 62.502, 445.877 64.665, 446.337 74 C 447.627 100.210, 462.104 123.746, 487.121 140.306 C 496.731 146.667, 519.578 158.428, 539.852 167.451 C 555.509 174.419, 564.557 180.165, 573.221 188.646 C 589.837 204.909, 595.854 228.969, 586.691 242.500 L 584.659 245.500 587.972 242.500 C 593.003 237.944, 599.224 231.135, 601.743 227.428 C 603.428 224.947, 604 222.673, 604 218.447 C 604 197.918, 589.730 177.439, 566.884 165.183 C 561.133 162.097, 555.496 159.708, 534.500 151.457 C 519.383 145.517, 501.451 136.574, 492.444 130.484 C 469.805 115.176, 455 90.074, 455 67 C 455 55.622, 459.523 40.941, 465.975 31.382 C 469.815 25.692, 469.817 25.385, 466 26.658 M 534.096 60.011 C 535.143 62.767, 536 66.735, 536 68.829 C 536 83.853, 523.100 97, 508.359 97 C 497.025 97, 485.317 88.160, 481.948 77.058 C 481.331 75.024, 481.156 74.910, 481.096 76.500 C 480.957 80.140, 485.629 88.437, 490.157 92.594 C 496.533 98.447, 502.227 100.377, 511.385 99.789 C 519.779 99.250, 525.602 96.495, 530.760 90.620 C 534.592 86.256, 538 77.255, 538 71.500 C 538 67.173, 534.697 56.549, 533.032 55.519 C 532.570 55.234, 533.049 57.256, 534.096 60.011 M 496.750 278.737 C 499.637 278.939, 504.363 278.939, 507.250 278.737 C 510.137 278.535, 507.775 278.370, 502 278.370 C 496.225 278.370, 493.863 278.535, 496.750 278.737 M 186.110 339.368 C 185.298 340.346, 185.053 351.080, 185.250 377.118 L 185.526 413.500 185.763 376.950 C 185.937 350.129, 186.319 340.081, 187.200 339.200 C 187.860 338.540, 188.140 338, 187.822 338 C 187.505 338, 186.734 338.615, 186.110 339.368 M 727.992 346.795 L 728.483 355.500 728.786 347.595 C 728.953 343.247, 728.732 339.330, 728.295 338.890 C 727.858 338.450, 727.721 342.008, 727.992 346.795 M 369.435 365 C 369.435 379.025, 369.575 384.762, 369.747 377.750 C 369.919 370.738, 369.919 359.262, 369.747 352.250 C 369.575 345.238, 369.435 350.975, 369.435 365 M 451.434 364.500 C 451.433 378.250, 451.574 384.014, 451.747 377.308 C 451.919 370.603, 451.920 359.353, 451.748 352.308 C 451.576 345.264, 451.434 350.750, 451.434 364.500 M 655.453 376.500 C 655.453 396.850, 655.586 405.033, 655.749 394.685 C 655.912 384.336, 655.911 367.686, 655.748 357.685 C 655.585 347.683, 655.452 356.150, 655.453 376.500 M 272.450 375 C 272.450 393.975, 272.584 401.738, 272.748 392.250 C 272.913 382.762, 272.913 367.238, 272.748 357.750 C 272.584 348.262, 272.450 356.025, 272.450 375 M 346.183 349.506 C 348.209 351.703, 351.016 355.525, 352.421 358 C 353.826 360.475, 354.981 362.026, 354.988 361.446 C 355.009 359.595, 349.387 351.605, 345.884 348.506 C 342.549 345.556, 342.553 345.570, 346.183 349.506 M 297.423 376.500 C 297.424 388.050, 297.570 392.638, 297.747 386.696 C 297.924 380.753, 297.923 371.303, 297.745 365.696 C 297.567 360.088, 297.422 364.950, 297.423 376.500 M 247.992 376.205 C 247.721 380.992, 247.858 384.550, 248.295 384.110 C 248.732 383.670, 248.953 379.753, 248.786 375.405 L 248.483 367.500 247.992 376.205 M 642.336 376 C 642.336 380.125, 642.513 381.813, 642.728 379.750 C 642.944 377.688, 642.944 374.313, 642.728 372.250 C 642.513 370.188, 642.336 371.875, 642.336 376 M 577.320 376 C 577.320 379.575, 577.502 381.038, 577.723 379.250 C 577.945 377.462, 577.945 374.538, 577.723 372.750 C 577.502 370.962, 577.320 372.425, 577.320 376 M 616.320 376 C 616.320 379.575, 616.502 381.038, 616.723 379.250 C 616.945 377.462, 616.945 374.538, 616.723 372.750 C 616.502 370.962, 616.320 372.425, 616.320 376 M 680.370 401 C 680.370 406.775, 680.535 409.137, 680.737 406.250 C 680.939 403.363, 680.939 398.637, 680.737 395.750 C 680.535 392.863, 680.370 395.225, 680.370 401" stroke="none" fill="#d2428a" fill-rule="evenodd"/><path d="M 457.818 29.495 C 443.785 34.654, 418.891 50.659, 414.517 57.334 C 412.200 60.869, 407.372 75.375, 405.571 84.208 C 402.314 100.185, 404.186 122.803, 410.010 137.833 C 421.257 166.863, 436.230 182.367, 472.500 202.545 C 492.456 213.646, 500.380 219.184, 509.636 228.498 C 515.746 234.645, 518.667 238.543, 521.362 244.147 C 525.344 252.424, 527.364 263.069, 526.353 270.444 C 526.009 272.950, 526.074 275, 526.496 275 C 526.919 275, 534.517 271.992, 543.382 268.316 C 560.688 261.139, 570.884 255.537, 580.633 247.850 C 588.936 241.303, 590.520 237.849, 590.423 226.500 C 590.298 211.984, 584.877 200.055, 573.221 188.646 C 564.557 180.165, 555.509 174.419, 539.852 167.451 C 519.578 158.428, 496.731 146.667, 487.121 140.306 C 462.104 123.746, 447.627 100.210, 446.337 74 C 445.877 64.660, 446.113 62.506, 448.471 54.500 C 450.947 46.098, 456.816 33.850, 459.019 32.488 C 459.912 31.936, 462.433 27.910, 461.785 28.070 C 461.628 28.109, 459.843 28.750, 457.818 29.495 M 499.316 43.326 C 493.349 45.526, 487.571 50.492, 484.500 56.061 C 481.864 60.839, 481.502 62.472, 481.514 69.500 C 481.530 78.710, 482.907 82.105, 489.326 88.760 C 499.953 99.776, 516.479 99.651, 527.659 88.472 C 535.626 80.504, 537.977 70.225, 534.141 60.129 C 531.326 52.719, 527.497 48.405, 520.745 45.030 C 515.888 42.603, 513.468 42.015, 508.590 42.076 C 505.241 42.118, 501.067 42.680, 499.316 43.326 M 403.760 67.353 C 388.972 84.482, 379.401 104.195, 374.316 128 C 372.953 134.379, 372.518 140.618, 372.574 153 C 372.637 167.211, 373.021 171.110, 375.341 181.106 C 378.641 195.320, 381.365 202.414, 387.876 213.755 C 405.441 244.346, 434.917 266.227, 470.680 275.223 C 478.311 277.142, 482.218 277.445, 499.665 277.471 C 510.756 277.487, 520.152 277.179, 520.546 276.786 C 522.150 275.185, 522.210 262.369, 520.642 256.249 C 518.291 247.069, 515.002 241.391, 507.081 232.832 C 499.437 224.572, 492.122 219.003, 479.500 211.830 C 475.100 209.330, 467.758 205.166, 463.186 202.578 C 434.092 186.111, 420.047 171.611, 409.223 146.867 C 402.302 131.047, 400.543 122.755, 400.553 106 C 400.561 90.513, 402.201 80.088, 406.488 68.250 C 407.733 64.813, 408.668 62, 408.567 62 C 408.465 62, 406.302 64.409, 403.760 67.353 M 488.157 336.470 C 474.195 339.644, 465.965 347.329, 465.200 357.905 C 464.628 365.824, 466.266 370.184, 471.567 374.850 C 476.851 379.501, 484.368 382.056, 501.500 385.024 C 514.070 387.201, 518 388.832, 518 391.868 C 518 396.859, 506.963 400.237, 497.250 398.218 C 492.460 397.222, 490.795 396.269, 487.277 392.511 L 483.055 388 474.084 388 C 466.044 388, 464.957 388.223, 463.611 390.145 C 461.096 393.735, 463.241 400.724, 468.592 406.376 C 481.159 419.651, 521.010 420.545, 535.404 407.876 C 541.086 402.874, 543.168 398.323, 543.133 390.981 C 543.100 384.006, 541.391 380.293, 536.271 376.070 C 531.061 371.773, 524.183 369.415, 509.797 366.995 C 495.089 364.521, 491.377 363.424, 490.566 361.311 C 489.023 357.290, 492.550 354.435, 500.388 353.360 C 506.587 352.511, 512.693 354.553, 516.554 358.768 C 519.608 362.101, 520.413 362.431, 526.419 362.814 C 539.953 363.676, 542.927 361.333, 539.544 352.475 C 537.305 346.613, 530.880 341.086, 522.893 338.151 C 514.689 335.136, 497.650 334.312, 488.157 336.470 M 583.500 336.428 C 580.200 337.198, 575.925 338.505, 574 339.332 C 560.350 345.191, 552 358.873, 552 375.379 C 552 400.291, 566.870 415.280, 593 416.709 C 610.011 417.640, 622.262 413.898, 631.080 405.080 C 638.382 397.778, 641.131 390.893, 641.768 378.313 C 642.799 357.938, 633.647 343.591, 616 337.920 C 607.583 335.215, 591.793 334.490, 583.500 336.428 M 187.110 339.367 C 186.298 340.346, 186.050 351.227, 186.238 377.617 L 186.500 414.500 222.500 414.764 C 263.837 415.068, 261 415.759, 261 405.380 C 261 395.677, 261.933 396, 233.929 396 L 210 396 210 390.522 L 210 385.044 228.750 384.772 L 247.500 384.500 247.793 376.086 C 248.004 370.029, 247.724 367.441, 246.793 366.851 C 246.082 366.400, 237.512 366.024, 227.750 366.015 L 210 366 210 361.500 L 210 357 233.929 357 C 261.844 357, 261 357.285, 261 347.863 C 261 337.177, 264.120 338, 223.587 338 C 194.914 338, 188.031 338.258, 187.110 339.367 M 274.200 339.200 C 272.479 340.921, 272.479 412.079, 274.200 413.800 C 275.060 414.660, 281.502 414.995, 296.950 414.983 C 320.534 414.964, 328.668 413.865, 337.607 409.491 C 351.442 402.722, 359.073 385.946, 356.007 369.037 C 353.115 353.088, 342.893 343.202, 325.483 339.514 C 316.462 337.603, 276.044 337.356, 274.200 339.200 M 370.667 338.667 C 369.581 339.752, 369.913 390.148, 371.033 394.177 C 374.943 408.257, 390.010 417.031, 410.197 416.983 C 425.602 416.946, 436.333 412.973, 443.733 404.566 C 450.336 397.064, 451 393.405, 451 364.492 C 451 342.364, 450.803 339.138, 449.418 338.607 C 446.452 337.469, 429.456 337.944, 428.200 339.200 C 427.337 340.063, 427 346.796, 427 363.180 C 427 389.287, 426.360 392.372, 420.149 396.225 C 415.287 399.241, 405.999 399.373, 401.113 396.495 C 394.513 392.607, 394 390.314, 394 364.700 C 394 350.874, 393.592 341.106, 392.965 339.934 C 392.044 338.214, 390.790 338, 381.631 338 C 375.968 338, 371.033 338.300, 370.667 338.667 M 657.238 338.825 C 656.250 339.457, 656.032 347.787, 656.238 377.067 L 656.500 414.500 666.854 414.786 C 673.630 414.973, 677.690 414.672, 678.604 413.914 C 679.649 413.046, 680 409.894, 680 401.378 L 680 390 697.929 390 C 719.297 390, 718.880 390.196, 718.610 380.279 C 718.508 376.548, 718.077 372.934, 717.653 372.248 C 717.082 371.324, 712.099 371, 698.441 371 L 680 371 680 364 L 680 357 702.750 356.985 C 715.263 356.976, 726.082 356.600, 726.793 356.149 C 727.724 355.559, 728.004 352.971, 727.793 346.914 L 727.500 338.500 693 338.258 C 674.025 338.125, 657.932 338.380, 657.238 338.825 M 736.035 339.934 C 735.466 340.998, 735 344.566, 735 347.863 C 735 356.623, 735.622 357, 750.071 357 L 762 357 762 384.309 C 762 404.740, 762.318 412.053, 763.264 413.346 C 764.348 414.828, 766.016 415.034, 774.944 414.788 L 785.360 414.500 786.156 411.516 C 786.594 409.874, 786.932 397.049, 786.907 383.016 L 786.862 357.500 799.470 357 C 813.987 356.424, 813.962 356.441, 813.985 347.684 C 814.012 337.178, 817.363 338, 774.500 338 C 738.518 338, 737.030 338.075, 736.035 339.934 M 591.365 353.898 C 586.622 355.112, 582.205 358.697, 579.739 363.334 C 576.398 369.617, 576.532 382.772, 580 388.961 C 583.127 394.541, 587.617 397.622, 593.875 398.483 C 606.784 400.258, 615.632 392.538, 616.744 378.529 C 617.549 368.396, 613.920 359.609, 607.343 355.768 C 603.707 353.645, 595.915 352.733, 591.365 353.898 M 297 376.500 L 297 397 307.288 397 C 315.969 397, 318.273 396.648, 322.038 394.750 C 328.257 391.614, 331 386.028, 331 376.500 C 331 366.972, 328.257 361.386, 322.038 358.250 C 318.273 356.352, 315.969 356, 307.288 356 L 297 356 297 376.500" stroke="none" fill="#1d5290" fill-rule="evenodd"/></svg>